<svg width="326" height="80" fill="none" xmlns="http://www.w3.org/2000/svg"><path fill="#4AF6CD" d="M125 0h201v80H125z"/><path d="M17.86 39.28c1.867.373 3.374 1.053 4.52 2.04 1.147.987 1.72 2.493 1.72 4.52 0 3.013-1.093 5.133-3.28 6.36-2.186 1.2-5.24 1.8-9.16 1.8H2.3V26.2h8.28c4 0 7.054.56 9.16 1.68 2.134 1.093 3.2 2.92 3.2 5.48 0 1.627-.493 2.933-1.48 3.92-.96.96-2.16 1.627-3.6 2zM9.7 31.36v5.8h1.92c1.307 0 2.267-.24 2.88-.72.614-.48.92-1.253.92-2.32 0-.987-.333-1.693-1-2.12-.64-.427-1.693-.64-3.16-.64H9.7zm2 17.36c1.574 0 2.76-.227 3.56-.68.8-.48 1.2-1.36 1.2-2.64 0-1.227-.373-2.107-1.12-2.64-.746-.56-1.826-.84-3.24-.84H9.7v6.8h2zm27.006-23.24c4.027 0 7.16 1.28 9.4 3.84 2.24 2.56 3.36 6.147 3.36 10.76 0 3.013-.506 5.627-1.52 7.84-.986 2.187-2.44 3.867-4.36 5.04-1.92 1.173-4.213 1.76-6.88 1.76-4.026 0-7.16-1.28-9.4-3.84-2.213-2.56-3.32-6.16-3.32-10.8 0-3.013.494-5.613 1.48-7.8 1.014-2.187 2.467-3.867 4.36-5.04 1.92-1.173 4.214-1.76 6.88-1.76zm0 5.32c-1.733 0-3.013.72-3.84 2.16-.8 1.44-1.2 3.813-1.2 7.12s.414 5.693 1.24 7.16c.827 1.44 2.094 2.16 3.8 2.16 1.76 0 3.04-.72 3.84-2.16.8-1.44 1.2-3.827 1.2-7.16 0-3.307-.4-5.68-1.2-7.12-.8-1.44-2.08-2.16-3.84-2.16zm27.617-5.32c4.027 0 7.16 1.28 9.4 3.84 2.24 2.56 3.36 6.147 3.36 10.76 0 3.013-.506 5.627-1.52 7.84-.986 2.187-2.44 3.867-4.36 5.04-1.92 1.173-4.213 1.76-6.88 1.76-4.026 0-7.16-1.28-9.4-3.84-2.213-2.56-3.32-6.16-3.32-10.8 0-3.013.494-5.613 1.48-7.8 1.014-2.187 2.467-3.867 4.36-5.04 1.92-1.173 4.214-1.76 6.88-1.76zm0 5.32c-1.733 0-3.013.72-3.84 2.16-.8 1.44-1.2 3.813-1.2 7.12s.414 5.693 1.24 7.16c.827 1.44 2.094 2.16 3.8 2.16 1.76 0 3.04-.72 3.84-2.16.8-1.44 1.2-3.827 1.2-7.16 0-3.307-.4-5.68-1.2-7.12-.8-1.44-2.08-2.16-3.84-2.16zm23.378-4.6V54h-7.4V26.2h7.4zm16.2 0l-8.36 12.4 9.08 15.4h-8.48l-8.2-14.8 8.24-13h7.72zM114 40h20v1h-20zm30.16 14V26.2h17.08l-.76 5.24h-8.92v6.68h7.84v5.24h-7.84V54h-7.4zm26.853-27.8v22.04h10.68l-.8 5.76h-17.28V26.2h7.4zm20.664 0V54h-7.4V26.2h7.4zm16.879-.72c3.707 0 6.893 1.173 9.56 3.52l-3.64 3.8c-1.013-.72-1.933-1.24-2.76-1.56-.8-.347-1.72-.52-2.76-.52-2 0-3.573.773-4.72 2.32-1.12 1.547-1.68 3.907-1.68 7.08 0 2.32.187 4.16.56 5.52.373 1.333.933 2.293 1.68 2.88.773.587 1.76.88 2.96.88s2.293-.253 3.28-.76v-5.72h-3.16l-.72-5.08h11.04v13.84c-1.44.96-3.067 1.707-4.88 2.24-1.813.533-3.6.8-5.36.8-8.693 0-13.04-4.88-13.04-14.64 0-3.04.587-5.653 1.76-7.84 1.2-2.213 2.827-3.893 4.88-5.04 2.053-1.147 4.387-1.72 7-1.72zM236.733 54V42.44h-7.36V54h-7.4V26.2h7.4v10.52h7.36V26.2h7.4V54h-7.4zm31.485-27.8l-.76 5.64h-6.56V54h-7.4V31.84h-6.96V26.2h21.68zm32.151 23.387l8.213-8.15a1.919 1.919 0 000-2.72l-8.213-8.155a1.958 1.958 0 00-2.746 0 1.922 1.922 0 000 2.719l4.806 4.767h-15.415a2.012 2.012 0 100 4.026h15.444l-4.835 4.793a1.92 1.92 0 000 2.718 1.954 1.954 0 002.746.002z" fill="#fff"/></svg>