<svg width="293" height="80" fill="none" xmlns="http://www.w3.org/2000/svg"><path fill="#4AF6CD" d="M125 0h168v80H125z"/><path d="M17.86 39.28c1.867.373 3.374 1.053 4.52 2.04 1.147.987 1.72 2.493 1.72 4.52 0 3.013-1.093 5.133-3.28 6.36-2.186 1.2-5.24 1.8-9.16 1.8H2.3V26.2h8.28c4 0 7.054.56 9.16 1.68 2.134 1.093 3.2 2.92 3.2 5.48 0 1.627-.493 2.933-1.48 3.92-.96.96-2.16 1.627-3.6 2zM9.7 31.36v5.8h1.92c1.307 0 2.267-.24 2.88-.72.614-.48.92-1.253.92-2.32 0-.987-.333-1.693-1-2.12-.64-.427-1.693-.64-3.16-.64H9.7zm2 17.36c1.574 0 2.76-.227 3.56-.68.8-.48 1.2-1.36 1.2-2.64 0-1.227-.373-2.107-1.12-2.64-.746-.56-1.826-.84-3.24-.84H9.7v6.8h2zm27.006-23.24c4.027 0 7.16 1.28 9.4 3.84 2.24 2.56 3.36 6.147 3.36 10.76 0 3.013-.506 5.627-1.52 7.84-.986 2.187-2.44 3.867-4.36 5.04-1.92 1.173-4.213 1.76-6.88 1.76-4.026 0-7.16-1.28-9.4-3.84-2.213-2.56-3.32-6.16-3.32-10.8 0-3.013.494-5.613 1.48-7.8 1.014-2.187 2.467-3.867 4.36-5.04 1.92-1.173 4.214-1.76 6.88-1.76zm0 5.32c-1.733 0-3.013.72-3.84 2.16-.8 1.44-1.2 3.813-1.2 7.12s.414 5.693 1.24 7.16c.827 1.44 2.094 2.16 3.8 2.16 1.76 0 3.04-.72 3.84-2.16.8-1.44 1.2-3.827 1.2-7.16 0-3.307-.4-5.68-1.2-7.12-.8-1.44-2.08-2.16-3.84-2.16zm27.617-5.32c4.027 0 7.16 1.28 9.4 3.84 2.24 2.56 3.36 6.147 3.36 10.76 0 3.013-.506 5.627-1.52 7.84-.986 2.187-2.44 3.867-4.36 5.04-1.92 1.173-4.213 1.76-6.88 1.76-4.026 0-7.16-1.28-9.4-3.84-2.213-2.56-3.32-6.16-3.32-10.8 0-3.013.494-5.613 1.48-7.8 1.014-2.187 2.467-3.867 4.36-5.04 1.92-1.173 4.214-1.76 6.88-1.76zm0 5.32c-1.733 0-3.013.72-3.84 2.16-.8 1.44-1.2 3.813-1.2 7.12s.414 5.693 1.24 7.16c.827 1.44 2.094 2.16 3.8 2.16 1.76 0 3.04-.72 3.84-2.16.8-1.44 1.2-3.827 1.2-7.16 0-3.307-.4-5.68-1.2-7.12-.8-1.44-2.08-2.16-3.84-2.16zm23.378-4.6V54h-7.4V26.2h7.4zm16.2 0l-8.36 12.4 9.08 15.4h-8.48l-8.2-14.8 8.24-13h7.72zM114 40h20v1h-20zm39.76-14.52c2.107 0 3.96.307 5.56.92a12.741 12.741 0 014.36 2.76l-3.32 3.92c-1.92-1.52-3.933-2.28-6.04-2.28-1.093 0-1.933.213-2.52.64-.56.4-.84.973-.84 1.72 0 .533.147.973.44 1.32.293.347.787.68 1.48 1 .693.32 1.787.72 3.28 1.2 2.853.907 4.933 2.053 6.24 3.44 1.333 1.36 2 3.253 2 5.68 0 1.76-.453 3.32-1.36 4.68-.907 1.333-2.227 2.373-3.96 3.12-1.707.747-3.72 1.12-6.04 1.12-4.427 0-8.04-1.347-10.84-4.04l3.64-4.04c2.213 1.813 4.52 2.72 6.92 2.72 1.253 0 2.227-.267 2.92-.8.693-.56 1.04-1.293 1.04-2.2 0-.64-.133-1.16-.4-1.56-.267-.427-.747-.8-1.44-1.12-.667-.347-1.653-.72-2.96-1.12-3.147-.987-5.36-2.173-6.64-3.56-1.28-1.387-1.92-3.133-1.92-5.24 0-1.653.44-3.107 1.32-4.36.907-1.253 2.147-2.213 3.72-2.88 1.6-.693 3.387-1.04 5.36-1.04zm32.622.72l-.76 5.64h-6.56V54h-7.4V31.84h-6.96V26.2h21.68zM201.065 54l-1.24-5.68h-7.36l-1.24 5.68h-7.68l8.24-27.8h8.88l8.24 27.8h-7.84zm-7.44-10.96h5.04l-2.52-11.56-2.52 11.56zm36.923-16.84l-8.88 17.44V54h-7.4V43.68l-8.88-17.48h8.08l4.6 11.8 4.64-11.8h7.84zm36.821 23.387l8.213-8.15a1.919 1.919 0 000-2.72l-8.213-8.155a1.958 1.958 0 00-2.746 0 1.922 1.922 0 000 2.719l4.806 4.767h-15.415a2.012 2.012 0 100 4.026h15.444l-4.835 4.793a1.92 1.92 0 000 2.718 1.954 1.954 0 002.746.002z" fill="#fff"/></svg>