<svg width="326" height="80" viewBox="0 0 326 80" fill="none" xmlns="http://www.w3.org/2000/svg">
<rect x="125" width="201" height="80" fill="#4AF6CD"/>
<path d="M17.8606 39.28C19.7273 39.6533 21.234 40.3333 22.3806 41.32C23.5273 42.3067 24.1006 43.8133 24.1006 45.84C24.1006 48.8533 23.0073 50.9733 20.8206 52.2C18.634 53.4 15.5806 54 11.6606 54H2.30063V26.2H10.5806C14.5806 26.2 17.634 26.76 19.7406 27.88C21.874 28.9733 22.9406 30.8 22.9406 33.36C22.9406 34.9867 22.4473 36.2933 21.4606 37.28C20.5006 38.24 19.3006 38.9067 17.8606 39.28ZM9.70063 31.36V37.16H11.6206C12.9273 37.16 13.8873 36.92 14.5006 36.44C15.114 35.96 15.4206 35.1867 15.4206 34.12C15.4206 33.1333 15.0873 32.4267 14.4206 32C13.7806 31.5733 12.7273 31.36 11.2606 31.36H9.70063ZM11.7006 48.72C13.274 48.72 14.4606 48.4933 15.2606 48.04C16.0606 47.56 16.4606 46.68 16.4606 45.4C16.4606 44.1733 16.0873 43.2933 15.3406 42.76C14.594 42.2 13.514 41.92 12.1006 41.92H9.70063V48.72H11.7006ZM38.7063 25.48C42.7329 25.48 45.8663 26.76 48.1063 29.32C50.3463 31.88 51.4663 35.4667 51.4663 40.08C51.4663 43.0933 50.9596 45.7067 49.9463 47.92C48.9596 50.1067 47.5063 51.7867 45.5863 52.96C43.6663 54.1333 41.3729 54.72 38.7063 54.72C34.6796 54.72 31.5463 53.44 29.3063 50.88C27.0929 48.32 25.9863 44.72 25.9863 40.08C25.9863 37.0667 26.4796 34.4667 27.4663 32.28C28.4796 30.0933 29.9329 28.4133 31.8263 27.24C33.7463 26.0667 36.0396 25.48 38.7063 25.48ZM38.7063 30.8C36.9729 30.8 35.6929 31.52 34.8663 32.96C34.0663 34.4 33.6663 36.7733 33.6663 40.08C33.6663 43.3867 34.0796 45.7733 34.9062 47.24C35.7329 48.68 36.9996 49.4 38.7063 49.4C40.4663 49.4 41.7463 48.68 42.5463 47.24C43.3463 45.8 43.7463 43.4133 43.7463 40.08C43.7463 36.7733 43.3463 34.4 42.5463 32.96C41.7463 31.52 40.4663 30.8 38.7063 30.8ZM66.3234 25.48C70.3501 25.48 73.4834 26.76 75.7234 29.32C77.9634 31.88 79.0834 35.4667 79.0834 40.08C79.0834 43.0933 78.5768 45.7067 77.5634 47.92C76.5768 50.1067 75.1234 51.7867 73.2034 52.96C71.2834 54.1333 68.9901 54.72 66.3234 54.72C62.2968 54.72 59.1634 53.44 56.9234 50.88C54.7101 48.32 53.6034 44.72 53.6034 40.08C53.6034 37.0667 54.0968 34.4667 55.0834 32.28C56.0968 30.0933 57.5501 28.4133 59.4434 27.24C61.3634 26.0667 63.6568 25.48 66.3234 25.48ZM66.3234 30.8C64.5901 30.8 63.3101 31.52 62.4834 32.96C61.6834 34.4 61.2834 36.7733 61.2834 40.08C61.2834 43.3867 61.6968 45.7733 62.5234 47.24C63.3501 48.68 64.6168 49.4 66.3234 49.4C68.0834 49.4 69.3634 48.68 70.1634 47.24C70.9634 45.8 71.3634 43.4133 71.3634 40.08C71.3634 36.7733 70.9634 34.4 70.1634 32.96C69.3634 31.52 68.0834 30.8 66.3234 30.8ZM89.7006 26.2V54H82.3006V26.2H89.7006ZM105.901 26.2L97.5406 38.6L106.621 54H98.1406L89.9406 39.2L98.1806 26.2H105.901Z" fill="white"/>
<rect x="114" y="40" width="20" height="1" fill="white"/>
<path d="M144.16 54V26.2H161.24L160.48 31.44H151.56V38.12H159.4V43.36H151.56V54H144.16ZM171.013 26.2V48.24H181.693L180.893 54H163.613V26.2H171.013ZM191.677 26.2V54H184.277V26.2H191.677ZM208.556 25.48C212.263 25.48 215.449 26.6533 218.116 29L214.476 32.8C213.463 32.08 212.543 31.56 211.716 31.24C210.916 30.8933 209.996 30.72 208.956 30.72C206.956 30.72 205.383 31.4933 204.236 33.04C203.116 34.5867 202.556 36.9467 202.556 40.12C202.556 42.44 202.743 44.28 203.116 45.64C203.489 46.9733 204.049 47.9333 204.796 48.52C205.569 49.1067 206.556 49.4 207.756 49.4C208.956 49.4 210.049 49.1467 211.036 48.64V42.92H207.876L207.156 37.84H218.196V51.68C216.756 52.64 215.129 53.3867 213.316 53.92C211.503 54.4533 209.716 54.72 207.956 54.72C199.263 54.72 194.916 49.84 194.916 40.08C194.916 37.04 195.503 34.4267 196.676 32.24C197.876 30.0267 199.503 28.3467 201.556 27.2C203.609 26.0533 205.943 25.48 208.556 25.48ZM236.733 54V42.44H229.373V54H221.973V26.2H229.373V36.72H236.733V26.2H244.133V54H236.733ZM268.218 26.2L267.458 31.84H260.898V54H253.498V31.84H246.538V26.2H268.218Z" fill="white"/>
<path d="M300.369 49.5872L308.582 41.4365C309.335 40.6853 309.335 39.4661 308.582 38.7175L300.369 30.5618C299.61 29.8107 298.382 29.8145 297.623 30.5618C296.872 31.3142 296.872 32.5284 297.623 33.2808L302.429 38.0483H287.014C285.901 38.0483 285 38.9479 285 40.0614C285 41.1736 285.901 42.0745 287.014 42.0745H302.458L297.623 46.8671C296.872 47.6182 296.872 48.8337 297.623 49.5848C298.381 50.3372 299.609 50.3385 300.369 49.5873V49.5872Z" fill="white"/>
</svg>
