<svg width="293" height="80" viewBox="0 0 293 80" fill="none" xmlns="http://www.w3.org/2000/svg">
<rect x="125" width="168" height="80" fill="#4AF6CD"/>
<path d="M17.8606 39.28C19.7273 39.6533 21.234 40.3333 22.3806 41.32C23.5273 42.3067 24.1006 43.8133 24.1006 45.84C24.1006 48.8533 23.0073 50.9733 20.8206 52.2C18.634 53.4 15.5806 54 11.6606 54H2.30063V26.2H10.5806C14.5806 26.2 17.634 26.76 19.7406 27.88C21.874 28.9733 22.9406 30.8 22.9406 33.36C22.9406 34.9867 22.4473 36.2933 21.4606 37.28C20.5006 38.24 19.3006 38.9067 17.8606 39.28ZM9.70063 31.36V37.16H11.6206C12.9273 37.16 13.8873 36.92 14.5006 36.44C15.114 35.96 15.4206 35.1867 15.4206 34.12C15.4206 33.1333 15.0873 32.4267 14.4206 32C13.7806 31.5733 12.7273 31.36 11.2606 31.36H9.70063ZM11.7006 48.72C13.274 48.72 14.4606 48.4933 15.2606 48.04C16.0606 47.56 16.4606 46.68 16.4606 45.4C16.4606 44.1733 16.0873 43.2933 15.3406 42.76C14.594 42.2 13.514 41.92 12.1006 41.92H9.70063V48.72H11.7006ZM38.7063 25.48C42.7329 25.48 45.8663 26.76 48.1063 29.32C50.3463 31.88 51.4663 35.4667 51.4663 40.08C51.4663 43.0933 50.9596 45.7067 49.9463 47.92C48.9596 50.1067 47.5063 51.7867 45.5863 52.96C43.6663 54.1333 41.3729 54.72 38.7063 54.72C34.6796 54.72 31.5463 53.44 29.3063 50.88C27.0929 48.32 25.9863 44.72 25.9863 40.08C25.9863 37.0667 26.4796 34.4667 27.4663 32.28C28.4796 30.0933 29.9329 28.4133 31.8263 27.24C33.7463 26.0667 36.0396 25.48 38.7063 25.48ZM38.7063 30.8C36.9729 30.8 35.6929 31.52 34.8663 32.96C34.0663 34.4 33.6663 36.7733 33.6663 40.08C33.6663 43.3867 34.0796 45.7733 34.9062 47.24C35.7329 48.68 36.9996 49.4 38.7063 49.4C40.4663 49.4 41.7463 48.68 42.5463 47.24C43.3463 45.8 43.7463 43.4133 43.7463 40.08C43.7463 36.7733 43.3463 34.4 42.5463 32.96C41.7463 31.52 40.4663 30.8 38.7063 30.8ZM66.3234 25.48C70.3501 25.48 73.4834 26.76 75.7234 29.32C77.9634 31.88 79.0834 35.4667 79.0834 40.08C79.0834 43.0933 78.5768 45.7067 77.5634 47.92C76.5768 50.1067 75.1234 51.7867 73.2034 52.96C71.2834 54.1333 68.9901 54.72 66.3234 54.72C62.2968 54.72 59.1634 53.44 56.9234 50.88C54.7101 48.32 53.6034 44.72 53.6034 40.08C53.6034 37.0667 54.0968 34.4667 55.0834 32.28C56.0968 30.0933 57.5501 28.4133 59.4434 27.24C61.3634 26.0667 63.6568 25.48 66.3234 25.48ZM66.3234 30.8C64.5901 30.8 63.3101 31.52 62.4834 32.96C61.6834 34.4 61.2834 36.7733 61.2834 40.08C61.2834 43.3867 61.6968 45.7733 62.5234 47.24C63.3501 48.68 64.6168 49.4 66.3234 49.4C68.0834 49.4 69.3634 48.68 70.1634 47.24C70.9634 45.8 71.3634 43.4133 71.3634 40.08C71.3634 36.7733 70.9634 34.4 70.1634 32.96C69.3634 31.52 68.0834 30.8 66.3234 30.8ZM89.7006 26.2V54H82.3006V26.2H89.7006ZM105.901 26.2L97.5406 38.6L106.621 54H98.1406L89.9406 39.2L98.1806 26.2H105.901Z" fill="white"/>
<rect x="114" y="40" width="20" height="1" fill="white"/>
<path d="M153.76 25.48C155.867 25.48 157.72 25.7867 159.32 26.4C160.947 27.0133 162.4 27.9333 163.68 29.16L160.36 33.08C158.44 31.56 156.427 30.8 154.32 30.8C153.227 30.8 152.387 31.0133 151.8 31.44C151.24 31.84 150.96 32.4133 150.96 33.16C150.96 33.6933 151.107 34.1333 151.4 34.48C151.693 34.8267 152.187 35.16 152.88 35.48C153.573 35.8 154.667 36.2 156.16 36.68C159.013 37.5867 161.093 38.7333 162.4 40.12C163.733 41.48 164.4 43.3733 164.4 45.8C164.4 47.56 163.947 49.12 163.04 50.48C162.133 51.8133 160.813 52.8533 159.08 53.6C157.373 54.3467 155.36 54.72 153.04 54.72C148.613 54.72 145 53.3733 142.2 50.68L145.84 46.64C148.053 48.4533 150.36 49.36 152.76 49.36C154.013 49.36 154.987 49.0933 155.68 48.56C156.373 48 156.72 47.2667 156.72 46.36C156.72 45.72 156.587 45.2 156.32 44.8C156.053 44.3733 155.573 44 154.88 43.68C154.213 43.3333 153.227 42.96 151.92 42.56C148.773 41.5733 146.56 40.3867 145.28 39C144 37.6133 143.36 35.8667 143.36 33.76C143.36 32.1067 143.8 30.6533 144.68 29.4C145.587 28.1467 146.827 27.1867 148.4 26.52C150 25.8267 151.787 25.48 153.76 25.48ZM186.382 26.2L185.622 31.84H179.062V54H171.662V31.84H164.702V26.2H186.382ZM201.065 54L199.825 48.32H192.465L191.225 54H183.545L191.785 26.2H200.665L208.905 54H201.065ZM193.625 43.04H198.665L196.145 31.48L193.625 43.04ZM230.548 26.2L221.668 43.64V54H214.268V43.68L205.388 26.2H213.468L218.068 38L222.708 26.2H230.548Z" fill="white"/>
<path d="M267.369 49.5872L275.582 41.4365C276.335 40.6853 276.335 39.4661 275.582 38.7175L267.369 30.5618C266.61 29.8107 265.382 29.8145 264.623 30.5618C263.872 31.3142 263.872 32.5284 264.623 33.2808L269.429 38.0483H254.014C252.901 38.0483 252 38.9479 252 40.0614C252 41.1736 252.901 42.0745 254.014 42.0745H269.458L264.623 46.8671C263.872 47.6182 263.872 48.8337 264.623 49.5848C265.381 50.3372 266.609 50.3385 267.369 49.5873V49.5872Z" fill="white"/>
</svg>
