<svg width="168" height="326" viewBox="0 0 168 326" fill="none" xmlns="http://www.w3.org/2000/svg">
<path fill-rule="evenodd" clip-rule="evenodd" d="M0 -5.42859H168V212.857H0V-5.42859Z" fill="#4AF6CD"/>
<path d="M60.22 174.646C60.22 171.486 60.68 168.706 61.6 166.306C62.52 163.866 63.9 161.686 65.74 159.766L71.62 164.746C69.34 167.626 68.2 170.646 68.2 173.806C68.2 175.446 68.52 176.706 69.16 177.586C69.76 178.426 70.62 178.846 71.74 178.846C72.54 178.846 73.2 178.626 73.72 178.186C74.24 177.746 74.74 177.006 75.22 175.966C75.7 174.926 76.3 173.286 77.02 171.046C78.38 166.766 80.1 163.646 82.18 161.686C84.22 159.686 87.06 158.686 90.7 158.686C93.34 158.686 95.68 159.366 97.72 160.726C99.72 162.086 101.28 164.066 102.4 166.666C103.52 169.226 104.08 172.246 104.08 175.726C104.08 182.366 102.06 187.786 98.02 191.986L91.96 186.526C94.68 183.206 96.04 179.746 96.04 176.146C96.04 174.266 95.64 172.806 94.84 171.766C94 170.726 92.9 170.206 91.54 170.206C90.58 170.206 89.8 170.406 89.2 170.806C88.56 171.206 88 171.926 87.52 172.966C87 173.966 86.44 175.446 85.84 177.406C84.36 182.126 82.58 185.446 80.5 187.366C78.42 189.286 75.8 190.246 72.64 190.246C70.16 190.246 67.98 189.586 66.1 188.266C64.22 186.906 62.78 185.046 61.78 182.686C60.74 180.286 60.22 177.606 60.22 174.646ZM89.02 121.241C91.9 121.241 94.48 121.881 96.76 123.161C99.04 124.401 100.84 126.281 102.16 128.801C103.44 131.321 104.08 134.401 104.08 138.041C104.08 143.561 102.74 147.741 100.06 150.581C97.34 153.421 93.66 154.841 89.02 154.841H61.3V143.741H88.66C91.18 143.741 93.04 143.301 94.24 142.421C95.4 141.501 95.98 140.041 95.98 138.041C95.98 136.041 95.38 134.601 94.18 133.721C92.98 132.841 91.14 132.401 88.66 132.401H61.3V121.241H89.02ZM87.64 101.233V104.293H103V115.393H61.3L61.3 100.933C61.3 95.0534 62.36 90.6734 64.48 87.7934C66.6 84.8734 69.86 83.4134 74.26 83.4134C76.9 83.4134 79.1 84.0334 80.86 85.2734C82.62 86.4734 84.2 88.4134 85.6 91.0934L103 80.7134V93.0734L87.64 101.233ZM80.08 104.293V100.573C80.08 96.7334 78.14 94.8134 74.26 94.8134C72.46 94.8134 71.14 95.3534 70.3 96.4334C69.46 97.4734 69.04 99.0534 69.04 101.173V104.293H80.08ZM103 78.1863H61.3V52.5663L69.16 53.7063V67.0863H79.18V55.3263H87.04V67.0863H103V78.1863Z" fill="white"/>
<path d="M60.22 303.92C60.22 298.36 61.98 293.58 65.5 289.58L71.2 295.04C70.12 296.56 69.34 297.94 68.86 299.18C68.34 300.38 68.08 301.76 68.08 303.32C68.08 306.32 69.24 308.68 71.56 310.4C73.88 312.08 77.42 312.92 82.18 312.92C85.66 312.92 88.42 312.64 90.46 312.08C92.46 311.52 93.9 310.68 94.78 309.56C95.66 308.4 96.1 306.92 96.1 305.12C96.1 303.32 95.72 301.68 94.96 300.2H86.38V304.94L78.76 306.02V289.46H99.52C100.96 291.62 102.08 294.06 102.88 296.78C103.68 299.5 104.08 302.18 104.08 304.82C104.08 317.86 96.76 324.38 82.12 324.38C77.56 324.38 73.64 323.5 70.36 321.74C67.04 319.94 64.52 317.5 62.8 314.42C61.08 311.34 60.22 307.84 60.22 303.92ZM60.22 266.335C60.22 260.295 62.14 255.595 65.98 252.235C69.82 248.875 75.2 247.195 82.12 247.195C86.64 247.195 90.56 247.955 93.88 249.475C97.16 250.955 99.68 253.135 101.44 256.015C103.2 258.895 104.08 262.335 104.08 266.335C104.08 272.375 102.16 277.075 98.32 280.435C94.48 283.755 89.08 285.415 82.12 285.415C77.6 285.415 73.7 284.675 70.42 283.195C67.14 281.675 64.62 279.495 62.86 276.655C61.1 273.775 60.22 270.335 60.22 266.335ZM68.2 266.335C68.2 268.935 69.28 270.855 71.44 272.095C73.6 273.295 77.16 273.895 82.12 273.895C87.08 273.895 90.66 273.275 92.86 272.035C95.02 270.795 96.1 268.895 96.1 266.335C96.1 263.695 95.02 261.775 92.86 260.575C90.7 259.375 87.12 258.775 82.12 258.775C77.16 258.775 73.6 259.375 71.44 260.575C69.28 261.775 68.2 263.695 68.2 266.335Z" fill="white"/>
<rect x="83" y="224.286" width="22.8571" height="1" transform="rotate(-90 83 224.286)" fill="white"/>
</svg>
